<svg xmlns="http://www.w3.org/2000/svg" viewBox="0 0 56.69 56.7"><defs><style>.cls-1{fill:#fff;}.cls-2{fill:#00aafe;}</style></defs><g id="Layer_2" data-name="Layer 2"><g id="Layer_1-2" data-name="Layer 1"><path class="cls-1" d="M46.39,17.21c-10.22-8.9-17.5,20.46-27.13,13.33h0c-1.44-2-5.37-5.25-7.39-2.42h0c.08,28,34.8,6.45,34.52-10.91Z"/><path class="cls-2" d="M49.27,7.89A36.45,36.45,0,0,0,38.61,2.81,50,50,0,0,0,22.49,0C16,.14,10.87,2.73,7.27,8.22A37.35,37.35,0,0,0,3,17.67c-1.7,5.4-3.07,10.88-3,16.6A17.38,17.38,0,0,0,7.42,48.8a36.7,36.7,0,0,0,10.66,5.08,53.35,53.35,0,0,0,15.28,2.81,20.58,20.58,0,0,0,3-.17,16.88,16.88,0,0,0,11.27-5.76,31.59,31.59,0,0,0,5.87-11.18C55.35,34,56.8,28.34,56.69,22.41A17.36,17.36,0,0,0,49.27,7.89Zm-4.54,12.4a5.86,5.86,0,0,1-.63.69q-9.39,9.4-18.8,18.8a3.6,3.6,0,0,1-5.08,0l-7.11-7.11a2.44,2.44,0,0,1-.8-2.27,2.54,2.54,0,0,1,2.12-2,2.59,2.59,0,0,1,2.22.9c1.81,1.83,3.63,3.64,5.45,5.46.2.2.41.38.75.7.28-.33.48-.61.72-.85l17.09-17.1a2.88,2.88,0,0,1,2-1.07,2.43,2.43,0,0,1,2,3.85Z"/></g></g></svg>